<svg xmlns="http://www.w3.org/2000/svg" width="640" height="410" viewBox="0 0 640 410" font-family="system-ui, -apple-system, 'Segoe UI', Roboto, sans-serif" font-size="13">
  <rect x="0.5" y="0.5" width="639" height="409" rx="8" fill="#ffffff" stroke="#cccccc"/>
  <text x="24" y="28" font-weight="600" fill="#222">Tone mapping curves</text>

  <!-- values above 1 exist only in a float target -->
  <rect x="199.0" y="44" width="405.0" height="280" fill="#fdf1e3" opacity="0.7"/>
  <text x="209.0" y="314.0" fill="#a8621b" font-size="12">above 1: float targets only</text>

  <line x1="64.0" y1="44" x2="64.0" y2="324" stroke="#e6e6e6"/>
  <text x="64.0" y="342" text-anchor="middle" fill="#555" font-size="12">0</text>
  <line x1="199.0" y1="44" x2="199.0" y2="324" stroke="#e6e6e6"/>
  <text x="199.0" y="342" text-anchor="middle" fill="#555" font-size="12">1</text>
  <line x1="334.0" y1="44" x2="334.0" y2="324" stroke="#e6e6e6"/>
  <text x="334.0" y="342" text-anchor="middle" fill="#555" font-size="12">2</text>
  <line x1="469.0" y1="44" x2="469.0" y2="324" stroke="#e6e6e6"/>
  <text x="469.0" y="342" text-anchor="middle" fill="#555" font-size="12">3</text>
  <line x1="604.0" y1="44" x2="604.0" y2="324" stroke="#e6e6e6"/>
  <text x="604.0" y="342" text-anchor="middle" fill="#555" font-size="12">4</text>
  <line x1="64" y1="324.0" x2="604" y2="324.0" stroke="#e6e6e6"/>
  <text x="56" y="328.0" text-anchor="end" fill="#555" font-size="12">0</text>
  <line x1="64" y1="254.0" x2="604" y2="254.0" stroke="#e6e6e6"/>
  <text x="56" y="258.0" text-anchor="end" fill="#555" font-size="12">0.25</text>
  <line x1="64" y1="184.0" x2="604" y2="184.0" stroke="#e6e6e6"/>
  <text x="56" y="188.0" text-anchor="end" fill="#555" font-size="12">0.5</text>
  <line x1="64" y1="114.0" x2="604" y2="114.0" stroke="#e6e6e6"/>
  <text x="56" y="118.0" text-anchor="end" fill="#555" font-size="12">0.75</text>
  <line x1="64" y1="44.0" x2="604" y2="44.0" stroke="#e6e6e6"/>
  <text x="56" y="48.0" text-anchor="end" fill="#555" font-size="12">1</text>
  
  <!-- display maximum -->
  <line x1="64" y1="44.0" x2="604" y2="44.0" stroke="#999" stroke-dasharray="4 3"/>

  <!-- axes -->
  <line x1="64" y1="44" x2="64" y2="324" stroke="#333"/>
  <line x1="64" y1="324" x2="604" y2="324" stroke="#333"/>
  <text x="334" y="364" text-anchor="middle" fill="#333">linear light in (after exposure)</text>
  <text x="18" y="184" text-anchor="middle" fill="#333" transform="rotate(-90 18 184)">value shown, before sRGB</text>

  <!-- curves -->
  <path d="M 64.0,324.0 L 66.7,318.4 L 69.4,312.8 L 72.1,307.2 L 74.8,301.6 L 77.5,296.0 L 80.2,290.4 L 82.9,284.8 L 85.6,279.2 L 88.3,273.6 L 91.0,268.0 L 93.7,262.4 L 96.4,256.8 L 99.1,251.2 L 101.8,245.6 L 104.5,240.0 L 107.2,234.4 L 109.9,228.8 L 112.6,223.2 L 115.3,217.6 L 118.0,212.0 L 120.7,206.4 L 123.4,200.8 L 126.1,195.2 L 128.8,189.6 L 131.5,184.0 L 134.2,178.4 L 136.9,172.8 L 139.6,167.2 L 142.3,161.6 L 145.0,156.0 L 147.7,150.4 L 150.4,144.8 L 153.1,139.2 L 155.8,133.6 L 158.5,128.0 L 161.2,122.4 L 163.9,116.8 L 166.6,111.2 L 169.3,105.6 L 172.0,100.0 L 174.7,94.4 L 177.4,88.8 L 180.1,83.2 L 182.8,77.6 L 185.5,72.0 L 188.2,66.4 L 190.9,60.8 L 193.6,55.2 L 196.3,49.6 L 199.0,44.0 L 201.7,44.0 L 204.4,44.0 L 207.1,44.0 L 209.8,44.0 L 212.5,44.0 L 215.2,44.0 L 217.9,44.0 L 220.6,44.0 L 223.3,44.0 L 226.0,44.0 L 228.7,44.0 L 231.4,44.0 L 234.1,44.0 L 236.8,44.0 L 239.5,44.0 L 242.2,44.0 L 244.9,44.0 L 247.6,44.0 L 250.3,44.0 L 253.0,44.0 L 255.7,44.0 L 258.4,44.0 L 261.1,44.0 L 263.8,44.0 L 266.5,44.0 L 269.2,44.0 L 271.9,44.0 L 274.6,44.0 L 277.3,44.0 L 280.0,44.0 L 282.7,44.0 L 285.4,44.0 L 288.1,44.0 L 290.8,44.0 L 293.5,44.0 L 296.2,44.0 L 298.9,44.0 L 301.6,44.0 L 304.3,44.0 L 307.0,44.0 L 309.7,44.0 L 312.4,44.0 L 315.1,44.0 L 317.8,44.0 L 320.5,44.0 L 323.2,44.0 L 325.9,44.0 L 328.6,44.0 L 331.3,44.0 L 334.0,44.0 L 336.7,44.0 L 339.4,44.0 L 342.1,44.0 L 344.8,44.0 L 347.5,44.0 L 350.2,44.0 L 352.9,44.0 L 355.6,44.0 L 358.3,44.0 L 361.0,44.0 L 363.7,44.0 L 366.4,44.0 L 369.1,44.0 L 371.8,44.0 L 374.5,44.0 L 377.2,44.0 L 379.9,44.0 L 382.6,44.0 L 385.3,44.0 L 388.0,44.0 L 390.7,44.0 L 393.4,44.0 L 396.1,44.0 L 398.8,44.0 L 401.5,44.0 L 404.2,44.0 L 406.9,44.0 L 409.6,44.0 L 412.3,44.0 L 415.0,44.0 L 417.7,44.0 L 420.4,44.0 L 423.1,44.0 L 425.8,44.0 L 428.5,44.0 L 431.2,44.0 L 433.9,44.0 L 436.6,44.0 L 439.3,44.0 L 442.0,44.0 L 444.7,44.0 L 447.4,44.0 L 450.1,44.0 L 452.8,44.0 L 455.5,44.0 L 458.2,44.0 L 460.9,44.0 L 463.6,44.0 L 466.3,44.0 L 469.0,44.0 L 471.7,44.0 L 474.4,44.0 L 477.1,44.0 L 479.8,44.0 L 482.5,44.0 L 485.2,44.0 L 487.9,44.0 L 490.6,44.0 L 493.3,44.0 L 496.0,44.0 L 498.7,44.0 L 501.4,44.0 L 504.1,44.0 L 506.8,44.0 L 509.5,44.0 L 512.2,44.0 L 514.9,44.0 L 517.6,44.0 L 520.3,44.0 L 523.0,44.0 L 525.7,44.0 L 528.4,44.0 L 531.1,44.0 L 533.8,44.0 L 536.5,44.0 L 539.2,44.0 L 541.9,44.0 L 544.6,44.0 L 547.3,44.0 L 550.0,44.0 L 552.7,44.0 L 555.4,44.0 L 558.1,44.0 L 560.8,44.0 L 563.5,44.0 L 566.2,44.0 L 568.9,44.0 L 571.6,44.0 L 574.3,44.0 L 577.0,44.0 L 579.7,44.0 L 582.4,44.0 L 585.1,44.0 L 587.8,44.0 L 590.5,44.0 L 593.2,44.0 L 595.9,44.0 L 598.6,44.0 L 601.3,44.0 L 604.0,44.0" fill="none" stroke="#777" stroke-width="2" stroke-dasharray="6 4"/>
  <path d="M 64.0,324.0 L 66.7,318.5 L 69.4,313.2 L 72.1,308.2 L 74.8,303.3 L 77.5,298.5 L 80.2,294.0 L 82.9,289.6 L 85.6,285.4 L 88.3,281.3 L 91.0,277.3 L 93.7,273.5 L 96.4,269.8 L 99.1,266.2 L 101.8,262.8 L 104.5,259.4 L 107.2,256.1 L 109.9,253.0 L 112.6,249.9 L 115.3,246.9 L 118.0,244.0 L 120.7,241.2 L 123.4,238.4 L 126.1,235.8 L 128.8,233.2 L 131.5,230.7 L 134.2,228.2 L 136.9,225.8 L 139.6,223.5 L 142.3,221.2 L 145.0,219.0 L 147.7,216.8 L 150.4,214.7 L 153.1,212.7 L 155.8,210.7 L 158.5,208.7 L 161.2,206.8 L 163.9,204.9 L 166.6,203.1 L 169.3,201.3 L 172.0,199.6 L 174.7,197.8 L 177.4,196.2 L 180.1,194.5 L 182.8,192.9 L 185.5,191.4 L 188.2,189.8 L 190.9,188.3 L 193.6,186.9 L 196.3,185.4 L 199.0,184.0 L 201.7,182.6 L 204.4,181.3 L 207.1,179.9 L 209.8,178.6 L 212.5,177.3 L 215.2,176.1 L 217.9,174.8 L 220.6,173.6 L 223.3,172.4 L 226.0,171.3 L 228.7,170.1 L 231.4,169.0 L 234.1,167.9 L 236.8,166.8 L 239.5,165.7 L 242.2,164.7 L 244.9,163.7 L 247.6,162.6 L 250.3,161.6 L 253.0,160.7 L 255.7,159.7 L 258.4,158.8 L 261.1,157.8 L 263.8,156.9 L 266.5,156.0 L 269.2,155.1 L 271.9,154.2 L 274.6,153.4 L 277.3,152.5 L 280.0,151.7 L 282.7,150.9 L 285.4,150.1 L 288.1,149.3 L 290.8,148.5 L 293.5,147.7 L 296.2,146.9 L 298.9,146.2 L 301.6,145.4 L 304.3,144.7 L 307.0,144.0 L 309.7,143.3 L 312.4,142.6 L 315.1,141.9 L 317.8,141.2 L 320.5,140.6 L 323.2,139.9 L 325.9,139.2 L 328.6,138.6 L 331.3,138.0 L 334.0,137.3 L 336.7,136.7 L 339.4,136.1 L 342.1,135.5 L 344.8,134.9 L 347.5,134.3 L 350.2,133.7 L 352.9,133.2 L 355.6,132.6 L 358.3,132.1 L 361.0,131.5 L 363.7,131.0 L 366.4,130.4 L 369.1,129.9 L 371.8,129.4 L 374.5,128.8 L 377.2,128.3 L 379.9,127.8 L 382.6,127.3 L 385.3,126.8 L 388.0,126.4 L 390.7,125.9 L 393.4,125.4 L 396.1,124.9 L 398.8,124.5 L 401.5,124.0 L 404.2,123.5 L 406.9,123.1 L 409.6,122.7 L 412.3,122.2 L 415.0,121.8 L 417.7,121.3 L 420.4,120.9 L 423.1,120.5 L 425.8,120.1 L 428.5,119.7 L 431.2,119.3 L 433.9,118.9 L 436.6,118.5 L 439.3,118.1 L 442.0,117.7 L 444.7,117.3 L 447.4,116.9 L 450.1,116.5 L 452.8,116.2 L 455.5,115.8 L 458.2,115.4 L 460.9,115.1 L 463.6,114.7 L 466.3,114.4 L 469.0,114.0 L 471.7,113.7 L 474.4,113.3 L 477.1,113.0 L 479.8,112.6 L 482.5,112.3 L 485.2,112.0 L 487.9,111.6 L 490.6,111.3 L 493.3,111.0 L 496.0,110.7 L 498.7,110.4 L 501.4,110.0 L 504.1,109.7 L 506.8,109.4 L 509.5,109.1 L 512.2,108.8 L 514.9,108.5 L 517.6,108.2 L 520.3,107.9 L 523.0,107.6 L 525.7,107.3 L 528.4,107.1 L 531.1,106.8 L 533.8,106.5 L 536.5,106.2 L 539.2,105.9 L 541.9,105.7 L 544.6,105.4 L 547.3,105.1 L 550.0,104.9 L 552.7,104.6 L 555.4,104.3 L 558.1,104.1 L 560.8,103.8 L 563.5,103.6 L 566.2,103.3 L 568.9,103.1 L 571.6,102.8 L 574.3,102.6 L 577.0,102.3 L 579.7,102.1 L 582.4,101.9 L 585.1,101.6 L 587.8,101.4 L 590.5,101.1 L 593.2,100.9 L 595.9,100.7 L 598.6,100.5 L 601.3,100.2 L 604.0,100.0" fill="none" stroke="#2b6fd9" stroke-width="2.5"/>
  <path d="M 64.0,324.0 L 66.7,321.1 L 69.4,315.3 L 72.1,307.5 L 74.8,298.5 L 77.5,288.8 L 80.2,278.7 L 82.9,268.7 L 85.6,258.8 L 88.3,249.3 L 91.0,240.1 L 93.7,231.4 L 96.4,223.2 L 99.1,215.4 L 101.8,208.1 L 104.5,201.2 L 107.2,194.8 L 109.9,188.7 L 112.6,183.0 L 115.3,177.6 L 118.0,172.6 L 120.7,167.8 L 123.4,163.4 L 126.1,159.2 L 128.8,155.2 L 131.5,151.4 L 134.2,147.9 L 136.9,144.5 L 139.6,141.4 L 142.3,138.3 L 145.0,135.5 L 147.7,132.8 L 150.4,130.2 L 153.1,127.7 L 155.8,125.4 L 158.5,123.1 L 161.2,121.0 L 163.9,119.0 L 166.6,117.0 L 169.3,115.1 L 172.0,113.4 L 174.7,111.6 L 177.4,110.0 L 180.1,108.4 L 182.8,106.9 L 185.5,105.4 L 188.2,104.0 L 190.9,102.7 L 193.6,101.4 L 196.3,100.1 L 199.0,98.9 L 201.7,97.8 L 204.4,96.6 L 207.1,95.6 L 209.8,94.5 L 212.5,93.5 L 215.2,92.5 L 217.9,91.6 L 220.6,90.6 L 223.3,89.7 L 226.0,88.9 L 228.7,88.0 L 231.4,87.2 L 234.1,86.4 L 236.8,85.7 L 239.5,84.9 L 242.2,84.2 L 244.9,83.5 L 247.6,82.8 L 250.3,82.1 L 253.0,81.5 L 255.7,80.9 L 258.4,80.3 L 261.1,79.7 L 263.8,79.1 L 266.5,78.5 L 269.2,77.9 L 271.9,77.4 L 274.6,76.9 L 277.3,76.4 L 280.0,75.9 L 282.7,75.4 L 285.4,74.9 L 288.1,74.4 L 290.8,74.0 L 293.5,73.5 L 296.2,73.1 L 298.9,72.7 L 301.6,72.2 L 304.3,71.8 L 307.0,71.4 L 309.7,71.0 L 312.4,70.6 L 315.1,70.3 L 317.8,69.9 L 320.5,69.5 L 323.2,69.2 L 325.9,68.8 L 328.6,68.5 L 331.3,68.2 L 334.0,67.8 L 336.7,67.5 L 339.4,67.2 L 342.1,66.9 L 344.8,66.6 L 347.5,66.3 L 350.2,66.0 L 352.9,65.7 L 355.6,65.4 L 358.3,65.2 L 361.0,64.9 L 363.7,64.6 L 366.4,64.4 L 369.1,64.1 L 371.8,63.9 L 374.5,63.6 L 377.2,63.4 L 379.9,63.1 L 382.6,62.9 L 385.3,62.6 L 388.0,62.4 L 390.7,62.2 L 393.4,62.0 L 396.1,61.8 L 398.8,61.5 L 401.5,61.3 L 404.2,61.1 L 406.9,60.9 L 409.6,60.7 L 412.3,60.5 L 415.0,60.3 L 417.7,60.1 L 420.4,59.9 L 423.1,59.8 L 425.8,59.6 L 428.5,59.4 L 431.2,59.2 L 433.9,59.0 L 436.6,58.9 L 439.3,58.7 L 442.0,58.5 L 444.7,58.4 L 447.4,58.2 L 450.1,58.0 L 452.8,57.9 L 455.5,57.7 L 458.2,57.6 L 460.9,57.4 L 463.6,57.2 L 466.3,57.1 L 469.0,57.0 L 471.7,56.8 L 474.4,56.7 L 477.1,56.5 L 479.8,56.4 L 482.5,56.2 L 485.2,56.1 L 487.9,56.0 L 490.6,55.8 L 493.3,55.7 L 496.0,55.6 L 498.7,55.5 L 501.4,55.3 L 504.1,55.2 L 506.8,55.1 L 509.5,55.0 L 512.2,54.8 L 514.9,54.7 L 517.6,54.6 L 520.3,54.5 L 523.0,54.4 L 525.7,54.3 L 528.4,54.1 L 531.1,54.0 L 533.8,53.9 L 536.5,53.8 L 539.2,53.7 L 541.9,53.6 L 544.6,53.5 L 547.3,53.4 L 550.0,53.3 L 552.7,53.2 L 555.4,53.1 L 558.1,53.0 L 560.8,52.9 L 563.5,52.8 L 566.2,52.7 L 568.9,52.6 L 571.6,52.5 L 574.3,52.4 L 577.0,52.3 L 579.7,52.2 L 582.4,52.1 L 585.1,52.0 L 587.8,52.0 L 590.5,51.9 L 593.2,51.8 L 595.9,51.7 L 598.6,51.6 L 601.3,51.5 L 604.0,51.4" fill="none" stroke="#d9822b" stroke-width="2.5"/>

  <!-- legend -->
  <g transform="translate(414,232)">
    <rect x="0" y="0" width="182" height="82" rx="6" fill="#ffffff" stroke="#ddd"/>
    <line x1="12" y1="20" x2="44" y2="20" stroke="#777" stroke-width="2" stroke-dasharray="6 4"/>
    <text x="54" y="24" fill="#333">none (clamp)</text>
    <line x1="12" y1="42" x2="44" y2="42" stroke="#2b6fd9" stroke-width="2.5"/>
    <text x="54" y="46" fill="#333">Reinhard  c / (1 + c)</text>
    <line x1="12" y1="64" x2="44" y2="64" stroke="#d9822b" stroke-width="2.5"/>
    <text x="54" y="68" fill="#333">ACES filmic</text>
  </g>

  <!-- annotations -->
  <text x="209.0" y="62.0" fill="#777" font-size="12">clamp: flat above 1</text>
  <text x="138.2" y="279.2" fill="#2b6fd9" font-size="12">Reinhard darkens the mid tones</text>
</svg>
